<?xml version="1.0" standalone="no"?>
<!DOCTYPE svg PUBLIC "-//W3C//DTD SVG 20010904//EN"
 "http://www.w3.org/TR/2001/REC-SVG-20010904/DTD/svg10.dtd">
<svg version="1.0" xmlns="http://www.w3.org/2000/svg"
 width="1024.000000pt" height="1024.000000pt" viewBox="0 0 1024.000000 1024.000000"
 preserveAspectRatio="xMidYMid meet">

<g transform="translate(0.000000,1024.000000) scale(0.100000,-0.100000)"
fill="#000000" stroke="none">
<path d="M5465 8489 c-137 -65 -257 -123 -264 -127 -28 -16 -30 -58 -6 -110
l23 -49 -65 -32 c-36 -18 -66 -31 -68 -29 -1 2 -25 48 -53 103 -30 58 -69 117
-92 140 l-40 39 -36 -43 c-20 -23 -64 -56 -98 -73 -50 -26 -75 -32 -136 -34
l-75 -3 -3 -45 c-2 -35 6 -67 38 -143 23 -54 44 -105 46 -113 4 -11 -14 -25
-59 -47 l-63 -31 -24 45 c-45 84 -63 89 -156 44 -32 -15 -117 -54 -189 -86
-71 -31 -134 -60 -140 -64 -5 -4 -40 -20 -78 -36 -51 -21 -69 -34 -73 -52 -9
-36 116 -289 151 -305 27 -12 26 -12 275 105 58 27 147 69 197 93 116 54 126
69 91 146 l-24 53 64 31 63 31 45 -89 44 -88 -20 -40 c-24 -47 -25 -81 -5
-120 19 -38 57 -40 105 -6 l35 24 43 -25 c54 -32 122 -34 179 -4 64 32 89 73
96 156 0 6 32 24 70 41 76 33 92 50 78 86 -12 33 -52 57 -105 64 l-45 7 -33
80 c-18 45 -34 84 -36 89 -3 7 117 72 123 66 1 -2 14 -26 29 -55 35 -71 58
-75 161 -27 44 20 165 74 269 120 104 46 193 89 198 96 16 26 6 60 -56 191
-63 132 -77 149 -121 146 -5 0 -122 -54 -260 -120z m217 -61 c58 -115 95 -198
79 -183 -12 12 -142 285 -136 285 3 0 28 -46 57 -102z m-163 -51 c21 -44 29
-76 10 -44 -15 26 -40 87 -35 87 2 0 14 -19 25 -43z m-139 -92 c81 -150 104
-205 55 -133 -14 20 -25 41 -25 47 0 5 -18 43 -40 83 -22 40 -40 77 -40 82 0
13 2 10 50 -79z m-457 12 c8 -20 -9 -41 -27 -34 -23 9 -21 47 3 47 10 0 21 -6
24 -13z m667 -67 c28 -55 25 -64 -5 -11 -26 44 -28 51 -20 51 2 0 14 -18 25
-40z m-500 -275 c10 -12 10 -18 0 -30 -25 -30 -67 -7 -49 27 12 22 32 23 49 3z
m-722 -137 c56 -107 99 -211 51 -123 -35 63 -119 235 -115 235 3 0 31 -51 64
-112z m878 26 c19 -9 34 -20 34 -24 0 -4 -30 -13 -67 -20 -85 -14 -253 -87
-345 -148 -57 -37 -71 -43 -79 -31 -23 37 -5 67 75 124 134 95 299 138 382 99z
m-1029 -94 c52 -99 66 -130 58 -130 -5 0 -115 216 -115 227 0 11 4 3 57 -97z
m-138 -91 c34 -61 60 -113 58 -116 -5 -4 -79 124 -107 182 -8 17 -16 33 -18
38 -2 4 -1 7 1 7 3 0 33 -50 66 -111z"/>
<path d="M4662 8449 c-43 -22 -83 -71 -95 -117 -12 -49 89 -50 184 -2 41 22
119 87 119 100 0 14 -80 40 -123 40 -23 0 -61 -10 -85 -21z"/>
<path d="M5694 7649 c-17 -19 -19 -37 -18 -158 1 -261 71 -532 218 -846 77
-165 205 -374 303 -497 30 -38 53 -71 51 -74 -9 -8 -199 113 -284 180 -180
143 -348 388 -398 579 -19 72 -22 77 -51 77 -27 0 -35 -19 -59 -140 -40 -201
-45 -482 -11 -674 79 -443 344 -742 789 -891 194 -64 448 -95 803 -95 165 0
713 28 973 51 333 28 373 34 383 51 18 27 -8 45 -76 53 -283 32 -732 177
-1007 327 -312 169 -513 321 -756 570 -299 307 -508 648 -650 1062 -38 109
-89 296 -99 365 -12 74 -70 106 -111 60z m55 -1479 c189 -188 430 -322 701
-391 l45 -11 -92 -23 c-51 -13 -128 -39 -170 -59 -43 -19 -109 -44 -148 -54
-38 -11 -78 -23 -87 -27 -27 -11 -138 102 -214 217 -77 114 -127 234 -160 378
-30 134 -31 157 -3 110 12 -19 69 -82 128 -140z m998 -608 c33 -10 108 -48
169 -85 60 -36 135 -78 167 -93 31 -16 57 -31 57 -35 0 -11 -78 -19 -240 -25
-174 -7 -348 11 -466 47 -97 30 -224 79 -224 87 0 9 115 77 155 92 108 42 270
47 382 12z"/>
<path d="M4343 7215 c-12 -9 -42 -68 -74 -147 -316 -791 -952 -1381 -1799
-1670 -150 -51 -355 -102 -504 -127 -114 -18 -140 -29 -129 -57 7 -19 23 -22
163 -34 914 -78 1422 -88 1748 -35 291 48 532 155 706 314 191 174 297 386
347 691 21 127 16 424 -10 570 -29 168 -37 190 -66 190 -29 0 -32 -5 -51 -77
-18 -68 -86 -216 -136 -294 -81 -127 -223 -265 -373 -365 -63 -42 -191 -114
-202 -114 -4 0 9 17 28 38 86 90 241 331 316 492 96 204 136 347 137 493 1
103 0 110 -23 128 -28 23 -49 24 -78 4z m282 -974 c-43 -224 -161 -449 -309
-589 -48 -45 -59 -52 -83 -46 -45 11 -213 70 -278 98 -33 14 -95 33 -137 43
-43 10 -78 21 -78 24 0 3 19 9 43 12 125 18 390 133 526 228 86 61 255 220
296 279 15 22 30 39 32 37 2 -2 -4 -41 -12 -86z m-782 -685 c43 -14 104 -42
135 -62 l55 -36 -65 -29 c-147 -65 -378 -109 -571 -109 -120 0 -307 18 -307
30 0 3 15 11 33 18 17 6 91 46 162 88 194 115 256 135 400 130 54 -2 105 -12
158 -30z"/>
<path d="M1863 4950 c-25 -10 -30 -42 -10 -57 6 -5 39 -15 72 -22 387 -83 766
-345 957 -663 250 -418 240 -953 -24 -1266 -55 -65 -60 -95 -15 -100 36 -4
100 33 175 103 107 99 173 224 213 405 32 145 22 402 -21 558 -10 37 -17 68
-16 70 11 11 173 -257 236 -390 106 -224 145 -389 145 -608 0 -220 -32 -326
-131 -438 -46 -53 -51 -76 -18 -89 25 -9 113 40 162 90 59 60 106 144 132 236
l23 80 59 -46 c167 -128 350 -355 449 -556 30 -60 37 -68 59 -65 24 3 25 6 24
63 -4 204 -216 533 -494 770 l-85 72 -23 153 c-40 266 -134 510 -288 742 -39
60 -69 108 -67 108 3 0 51 -18 108 -40 157 -62 340 -183 446 -297 150 -160
249 -362 284 -577 19 -116 19 -191 0 -301 -16 -92 -11 -115 25 -115 37 0 91
101 116 222 19 86 13 266 -10 363 -25 98 -28 100 84 -48 196 -259 355 -669
414 -1072 18 -118 36 -342 36 -435 0 -70 10 -90 46 -90 29 0 33 14 46 145 26
275 -19 694 -107 989 -157 529 -446 924 -881 1203 -18 11 -17 12 5 12 39 1
200 70 274 118 38 24 91 65 118 90 l48 45 42 -33 c93 -74 191 -218 247 -364
48 -127 63 -214 69 -400 3 -93 10 -176 15 -182 6 -7 21 -13 35 -13 18 0 28 9
40 37 30 73 53 214 53 334 0 483 -239 820 -717 1010 -228 90 -589 162 -953
188 -80 6 -172 13 -205 16 -113 10 -800 44 -985 50 -111 3 -194 1 -207 -5z
m1382 -270 c83 -5 179 -12 213 -16 l64 -7 -44 -44 c-24 -24 -76 -61 -117 -81
-69 -34 -82 -37 -180 -40 l-106 -3 -97 79 c-54 44 -110 89 -125 101 l-28 20
135 0 c74 1 203 -4 285 -9z m588 -90 c132 -33 235 -69 346 -121 l103 -49 -48
-40 c-167 -140 -479 -193 -729 -126 -55 15 -129 37 -165 50 l-65 24 45 11
c149 39 221 82 325 193 39 42 78 76 88 77 10 0 55 -8 100 -19z"/>
<path d="M8105 4953 c-44 -1 -163 -7 -265 -13 -102 -5 -237 -13 -300 -15 -741
-34 -1165 -95 -1477 -211 -501 -186 -758 -532 -754 -1016 1 -139 9 -197 37
-300 19 -65 33 -81 66 -76 22 3 23 6 29 145 8 166 13 209 41 318 47 190 124
332 251 463 l71 72 35 -33 c101 -95 208 -160 339 -206 l80 -28 -96 -68 c-507
-360 -806 -914 -887 -1639 -16 -140 -19 -488 -6 -570 10 -60 34 -83 65 -62 19
12 22 27 28 182 10 262 40 454 105 684 65 229 174 480 278 641 51 79 155 213
161 207 2 -2 -4 -26 -12 -53 -40 -131 -32 -359 16 -487 34 -90 56 -120 88
-116 31 3 30 -6 17 209 -30 471 263 891 758 1089 44 17 81 30 83 28 2 -2 -21
-41 -51 -86 -152 -226 -266 -511 -295 -733 -25 -189 -13 -165 -135 -273 -189
-168 -318 -333 -405 -519 -46 -98 -85 -237 -76 -272 6 -24 28 -38 49 -29 6 2
34 49 61 103 90 182 253 383 410 508 l80 62 21 -72 c29 -99 70 -172 135 -238
125 -126 245 -127 141 -1 -60 73 -89 130 -112 227 -72 291 28 689 268 1067
105 165 105 164 83 88 -28 -99 -41 -207 -42 -347 0 -141 11 -216 49 -338 39
-124 79 -191 168 -280 92 -93 173 -142 205 -125 31 17 25 36 -35 108 -141 170
-217 426 -200 677 25 370 198 699 493 937 103 82 165 121 302 189 124 61 196
87 329 118 102 24 123 45 79 75 -23 16 -46 17 -273 9z m-748 -305 c-30 -24
-85 -69 -123 -100 l-68 -58 -88 0 c-134 0 -238 40 -317 124 -19 20 -33 38 -30
40 10 10 370 32 567 34 l114 2 -55 -42z m-796 -88 c91 -105 204 -178 332 -215
32 -9 57 -18 55 -20 -2 -1 -46 -17 -98 -34 -181 -59 -337 -79 -468 -61 -90 12
-234 57 -290 91 -48 29 -122 88 -122 98 0 11 151 84 240 116 62 22 268 82 292
84 4 1 30 -26 59 -59z"/>
</g>
</svg>
